# xmcd
#
# Track frame offsets:
#	150
#	11653
#	23395
#	40562
#	58085
#	71470
#	85048
#	100110
#	115472
#	129388
#	143522
#	160847
#	178317
#	200479
#	222641
#	233535
#	244686
#	259191
#
# Disc length: 3649 seconds
#
# Revision: 0
# Processed by: cddbd v1.5.2PL0 Copyright (c) Steve Scherf et al.
# Submitted via: EasyCDDAExtractor 10.0.2.1
#
DISCID=ee0e3f12
DTITLE=The Daybreak Quartet - Daybreak Quartet Soundtracks II
DYEAR=2006
DGENRE=Gospel
TTITLE0=Victory I Mine TRACK
TTITLE1=Victory Is Mine DEMO
TTITLE2=Someday TRACK
TTITLE3=Someday DEMO
TTITLE4=He Has Said To Go Over TRACK
TTITLE5=He Has Said To Go Over DEMO
TTITLE6=Walking In The Flame TRACK
TTITLE7=Walking In The Flame DEMO
TTITLE8=Wonderful Feeling TRACK
TTITLE9=Wonderful Feeling DEMO
TTITLE10=I Thirst TRACK
TTITLE11=I Thirst DEMO
TTITLE12=This Is My Story TRACK
TTITLE13=This Is My Story DEMO
TTITLE14=Sing Oh Sing TRACK
TTITLE15=Sing Oh Sing DEMO
TTITLE16=He Is Mine TRACK
TTITLE17=He His Mine DEMO
EXTD=
EXTT0=
EXTT1=
EXTT2=
EXTT3=
EXTT4=
EXTT5=
EXTT6=
EXTT7=
EXTT8=
EXTT9=
EXTT10=
EXTT11=
EXTT12=
EXTT13=
EXTT14=
EXTT15=
EXTT16=
EXTT17=
PLAYORDER=
